<svg xmlns="http://www.w3.org/2000/svg" xmlns:xlink="http://www.w3.org/1999/xlink" viewBox="0 0 470 215" role="img" aria-label="Bacaan mikrometer sekrup: skala utama 3,5 mm, skala putar 37"><rect x="20" y="70" width="286" height="80" fill="#F4F1E8" stroke="#1B1E2B" stroke-width="2"/><line x1="20" y1="110" x2="306" y2="110" stroke="#1B1E2B" stroke-width="2"/><line x1="40" y1="110" x2="40" y2="84" stroke="#1B1E2B" stroke-width="2.2"/><text x="40" y="78" font-family="JetBrains Mono, ui-monospace, monospace" font-size="18" font-weight="700" fill="#1B1E2B" text-anchor="middle">0</text><line x1="110" y1="110" x2="110" y2="84" stroke="#1B1E2B" stroke-width="2.2"/><text x="110" y="78" font-family="JetBrains Mono, ui-monospace, monospace" font-size="18" font-weight="700" fill="#1B1E2B" text-anchor="middle">1</text><line x1="180" y1="110" x2="180" y2="84" stroke="#1B1E2B" stroke-width="2.2"/><text x="180" y="78" font-family="JetBrains Mono, ui-monospace, monospace" font-size="18" font-weight="700" fill="#1B1E2B" text-anchor="middle">2</text><line x1="250" y1="110" x2="250" y2="84" stroke="#1B1E2B" stroke-width="2.2"/><text x="250" y="78" font-family="JetBrains Mono, ui-monospace, monospace" font-size="18" font-weight="700" fill="#1B1E2B" text-anchor="middle">3</text><line x1="75" y1="110" x2="75" y2="128" stroke="#1B1E2B" stroke-width="1.8"/><line x1="145" y1="110" x2="145" y2="128" stroke="#1B1E2B" stroke-width="1.8"/><line x1="215" y1="110" x2="215" y2="128" stroke="#1B1E2B" stroke-width="1.8"/><line x1="285" y1="110" x2="285" y2="128" stroke="#1B1E2B" stroke-width="1.8"/><text x="48" y="140" font-family="Figtree, system-ui, sans-serif" font-size="14" font-weight="600" fill="#6B6F80" text-anchor="start">mm</text><path d="M303 40h70l40 30v80l-40 30h-70z" fill="#E6E8FB" stroke="#3D47C9" stroke-width="2.5" stroke-linejoin="round"/><line x1="303" y1="165" x2="317" y2="165" stroke="#3D47C9" stroke-width="1.6"/><line x1="303" y1="154" x2="317" y2="154" stroke="#3D47C9" stroke-width="1.6"/><line x1="303" y1="143" x2="317" y2="143" stroke="#3D47C9" stroke-width="1.6"/><line x1="303" y1="132" x2="327" y2="132" stroke="#3D47C9" stroke-width="1.6"/><text x="333" y="137" font-family="JetBrains Mono, ui-monospace, monospace" font-size="16" font-weight="700" fill="#3D47C9" text-anchor="start">35</text><line x1="303" y1="121" x2="317" y2="121" stroke="#3D47C9" stroke-width="1.6"/><line x1="303" y1="110" x2="317" y2="110" stroke="#3D47C9" stroke-width="3"/><text x="333" y="115" font-family="JetBrains Mono, ui-monospace, monospace" font-size="14" font-weight="700" fill="#D1495B" text-anchor="start">37</text><line x1="303" y1="99" x2="317" y2="99" stroke="#3D47C9" stroke-width="1.6"/><line x1="303" y1="88" x2="317" y2="88" stroke="#3D47C9" stroke-width="1.6"/><line x1="303" y1="77" x2="327" y2="77" stroke="#3D47C9" stroke-width="1.6"/><text x="333" y="82" font-family="JetBrains Mono, ui-monospace, monospace" font-size="16" font-weight="700" fill="#3D47C9" text-anchor="start">40</text><line x1="303" y1="66" x2="317" y2="66" stroke="#3D47C9" stroke-width="1.6"/><line x1="303" y1="55" x2="317" y2="55" stroke="#3D47C9" stroke-width="1.6"/><text x="152" y="196" font-family="Figtree, system-ui, sans-serif" font-size="13" font-weight="600" fill="#6B6F80" text-anchor="middle">skala utama</text><text x="353" y="205" font-family="Figtree, system-ui, sans-serif" font-size="13" font-weight="600" fill="#3D47C9" text-anchor="middle">skala putar</text></svg>
