<svg xmlns="http://www.w3.org/2000/svg" xmlns:xlink="http://www.w3.org/1999/xlink" viewBox="0 0 800 110" role="img" aria-label="Dua mobil abu-abu dan tiga mobil putih"><g transform="translate(10 20)"><path d="M8 52c0-10 6-16 16-17l18-18c4-4 9-6 15-6h30c6 0 11 3 15 7l15 17c12 1 19 7 19 17v8H8z" fill="#9AA0AE" stroke="#4A4F5C" stroke-width="2.5" stroke-linejoin="round"/><path d="M46 21h20v17H32zM72 21h16c3 0 6 1 8 4l11 13H72z" fill="#CFE6F2" stroke="#4A4F5C" stroke-width="2"/><circle cx="36" cy="60" r="11" fill="#1B1E2B"/><circle cx="36" cy="60" r="4.5" fill="#C9CCD6"/><circle cx="104" cy="60" r="11" fill="#1B1E2B"/><circle cx="104" cy="60" r="4.5" fill="#C9CCD6"/></g><g transform="translate(160 20)"><path d="M8 52c0-10 6-16 16-17l18-18c4-4 9-6 15-6h30c6 0 11 3 15 7l15 17c12 1 19 7 19 17v8H8z" fill="#9AA0AE" stroke="#4A4F5C" stroke-width="2.5" stroke-linejoin="round"/><path d="M46 21h20v17H32zM72 21h16c3 0 6 1 8 4l11 13H72z" fill="#CFE6F2" stroke="#4A4F5C" stroke-width="2"/><circle cx="36" cy="60" r="11" fill="#1B1E2B"/><circle cx="36" cy="60" r="4.5" fill="#C9CCD6"/><circle cx="104" cy="60" r="11" fill="#1B1E2B"/><circle cx="104" cy="60" r="4.5" fill="#C9CCD6"/></g><g transform="translate(340 20)"><path d="M8 52c0-10 6-16 16-17l18-18c4-4 9-6 15-6h30c6 0 11 3 15 7l15 17c12 1 19 7 19 17v8H8z" fill="#FFFFFF" stroke="#4A4F5C" stroke-width="2.5" stroke-linejoin="round"/><path d="M46 21h20v17H32zM72 21h16c3 0 6 1 8 4l11 13H72z" fill="#CFE6F2" stroke="#4A4F5C" stroke-width="2"/><circle cx="36" cy="60" r="11" fill="#1B1E2B"/><circle cx="36" cy="60" r="4.5" fill="#C9CCD6"/><circle cx="104" cy="60" r="11" fill="#1B1E2B"/><circle cx="104" cy="60" r="4.5" fill="#C9CCD6"/></g><g transform="translate(490 20)"><path d="M8 52c0-10 6-16 16-17l18-18c4-4 9-6 15-6h30c6 0 11 3 15 7l15 17c12 1 19 7 19 17v8H8z" fill="#FFFFFF" stroke="#4A4F5C" stroke-width="2.5" stroke-linejoin="round"/><path d="M46 21h20v17H32zM72 21h16c3 0 6 1 8 4l11 13H72z" fill="#CFE6F2" stroke="#4A4F5C" stroke-width="2"/><circle cx="36" cy="60" r="11" fill="#1B1E2B"/><circle cx="36" cy="60" r="4.5" fill="#C9CCD6"/><circle cx="104" cy="60" r="11" fill="#1B1E2B"/><circle cx="104" cy="60" r="4.5" fill="#C9CCD6"/></g><g transform="translate(640 20)"><path d="M8 52c0-10 6-16 16-17l18-18c4-4 9-6 15-6h30c6 0 11 3 15 7l15 17c12 1 19 7 19 17v8H8z" fill="#FFFFFF" stroke="#4A4F5C" stroke-width="2.5" stroke-linejoin="round"/><path d="M46 21h20v17H32zM72 21h16c3 0 6 1 8 4l11 13H72z" fill="#CFE6F2" stroke="#4A4F5C" stroke-width="2"/><circle cx="36" cy="60" r="11" fill="#1B1E2B"/><circle cx="36" cy="60" r="4.5" fill="#C9CCD6"/><circle cx="104" cy="60" r="11" fill="#1B1E2B"/><circle cx="104" cy="60" r="4.5" fill="#C9CCD6"/></g><line x1="315" y1="10" x2="315" y2="100" stroke="#D9D5CA" stroke-width="2" stroke-dasharray="6 6"/></svg>
